<?xml version="1.0" encoding="utf-8"?>
<!-- Generator: Adobe Illustrator 16.0.0, SVG Export Plug-In . SVG Version: 6.00 Build 0)  -->
<!DOCTYPE svg PUBLIC "-//W3C//DTD SVG 1.1//EN" "http://www.w3.org/Graphics/SVG/1.1/DTD/svg11.dtd">
<svg version="1.1" id="Layer_1" xmlns="http://www.w3.org/2000/svg" xmlns:xlink="http://www.w3.org/1999/xlink" x="0px" y="0px"
	 width="90px" height="38px" viewBox="0 0 90 38" enable-background="new 0 0 90 38" xml:space="preserve">
<g>
	<path fill="#231F20" d="M47.137,6.059c-0.517-0.921-1.22-1.664-2.094-2.203c-0.863-0.532-1.846-0.896-2.943-1.103
		c-1.08-0.2-2.198-0.299-3.361-0.299h-8.451c-0.135,0-0.268,0.054-0.363,0.15c-0.096,0.097-0.149,0.229-0.149,0.365v22.55
		c0,0.136,0.052,0.266,0.149,0.363c0.098,0.099,0.227,0.15,0.363,0.15h2.984c0.137,0,0.268-0.052,0.364-0.15
		c0.097-0.098,0.15-0.228,0.15-0.363v-8.502h5.153c2.834,0,5.063-0.603,6.634-1.882c1.575-1.283,2.354-3.202,2.347-5.582
		C47.919,8.179,47.671,7.008,47.137,6.059z M39.004,13.303h-5.219V6.166h5.118c0.71,0,1.379,0.049,2.006,0.145
		c0.601,0.091,1.11,0.268,1.545,0.519c0.414,0.244,0.735,0.572,0.983,1.014c0.231,0.413,0.369,1,0.369,1.775
		c0,0.641-0.09,1.184-0.261,1.637c-0.164,0.441-0.417,0.798-0.779,1.099c-0.357,0.299-0.834,0.536-1.452,0.7
		C40.701,13.216,39.929,13.304,39.004,13.303z"/>
	<path fill="#231F20" d="M67.665,22.472c-0.098-0.096-0.231-0.15-0.364-0.15H53.967L53.966,15.7h11.951
		c0.138,0,0.266-0.055,0.364-0.15c0.098-0.098,0.149-0.228,0.149-0.366v-2.682c0-0.137-0.055-0.27-0.149-0.364
		c-0.098-0.097-0.229-0.152-0.364-0.152H53.966v-5.82H66.8c0.138,0,0.269-0.053,0.364-0.15c0.098-0.098,0.15-0.226,0.15-0.364V2.969
		c0-0.136-0.055-0.268-0.148-0.365c-0.097-0.097-0.229-0.15-0.366-0.15H50.465c-0.134,0-0.265,0.054-0.361,0.15
		c-0.094,0.097-0.15,0.229-0.15,0.365v22.55c0,0.136,0.053,0.266,0.15,0.363c0.098,0.099,0.227,0.15,0.361,0.15h16.836
		c0.137,0,0.267-0.052,0.364-0.15c0.096-0.098,0.149-0.228,0.149-0.363v-2.685C67.814,22.698,67.759,22.566,67.665,22.472z"/>
	<path fill="#231F20" d="M88.742,2.604c-0.095-0.097-0.226-0.15-0.363-0.15h-2.865c-0.137,0-0.27,0.054-0.366,0.15
		c-0.095,0.097-0.151,0.229-0.151,0.365v16.104L74.159,2.684c-0.097-0.143-0.257-0.23-0.429-0.23h-3.084
		c-0.136,0-0.269,0.054-0.362,0.15c-0.097,0.097-0.151,0.229-0.151,0.365v22.55c0,0.136,0.053,0.266,0.151,0.363
		c0.097,0.099,0.226,0.15,0.362,0.15h2.835c0.137,0,0.266-0.052,0.363-0.15c0.099-0.098,0.15-0.228,0.15-0.363V9.438l10.892,16.365
		c0.093,0.144,0.254,0.229,0.426,0.229h3.066c0.139,0,0.268-0.052,0.363-0.15c0.099-0.098,0.152-0.228,0.152-0.363V2.969
		C88.895,2.833,88.84,2.701,88.742,2.604z"/>
	<path fill="none" d="M23.352,13.021"/>
	<path fill="#00B288" d="M14.21,4.499c4.649,0.01,8.485,3.421,9.167,7.879c1.585,0.229,2.882,0.639,3.917,1.095
		c-0.007-0.3-0.026-0.449-0.026-0.449l-0.003-0.004C26.871,6.149,21.178,0.701,14.21,0.699C7.299,0.701,1.649,6.057,1.167,12.845
		c0.024,0.447,0.251,1.295,1.523,1.918l-0.078-0.021c1.285,0.694,3.29,1.509,5.655,1.514c1.76,0,4.104-0.468,6.046-1.779
		c1.359-0.916,2.913-1.78,4.596-1.783c0.52-0.001,1.04,0.056,1.548,0.161c0.143,0.03,0.286,0.061,0.424,0.102
		c0,0,0.477,0.264,0.573-0.049c0.053-0.173,0-0.321-0.059-0.422c-0.163-0.278-0.584-0.547-0.849-0.718
		c-0.373-0.24-0.788-0.414-1.216-0.525c-0.984-0.255-2.038-0.181-3.026,0.019c-0.993,0.201-1.971,0.534-2.885,0.968
		c-1.585,0.755-3.248,1.032-4.263,1.032c-1.655-0.004-2.647-0.72-3.275-1.447c-0.228-0.265-0.399-0.531-0.529-0.762
		C6.522,7.264,10.038,4.508,14.21,4.499z"/>
	<path fill="#231F20" d="M23.56,13.898c-0.01,0.278-0.026,0.498-0.036,0.6h-0.006c-0.349,4.813-4.353,8.607-9.25,8.616
		c-4.006-0.008-7.277-2.213-8.572-5.734c-0.907-0.204-3.074-0.783-4.428-1.879c0,0.004-0.001,0.008-0.002,0.013
		c0.662,6.606,6.218,11.399,13.001,11.402c6.798-0.003,12.382-5.189,13.016-11.825C26.024,14.444,24.655,14.091,23.56,13.898z"/>
</g>
<rect x="2.044" y="29.736" fill="#231F20" width="86.814" height="7.389"/>
<g>
	<path fill="#FFFFFF" d="M34.276,33.373v-0.317h1.441v-0.845h0.383v0.845h1.916v0.317H34.276z M35.057,35.114
		c-0.253-0.154-0.38-0.346-0.38-0.573c0-0.23,0.127-0.421,0.38-0.571c0.256-0.151,0.618-0.228,1.087-0.228
		c0.473,0,0.837,0.076,1.089,0.228c0.255,0.15,0.381,0.341,0.381,0.571c0,0.228-0.126,0.419-0.381,0.573
		c-0.252,0.154-0.616,0.23-1.089,0.23C35.675,35.345,35.313,35.269,35.057,35.114z M37.596,31.385
		c-0.003,0.254-0.022,0.501-0.055,0.741c-0.033,0.239-0.071,0.453-0.112,0.641H37.07c0.033-0.144,0.062-0.313,0.088-0.514
		c0.028-0.199,0.044-0.381,0.046-0.55h-2.49v-0.318H37.596z M35.377,34.916c0.193,0.085,0.45,0.128,0.766,0.128
		c0.316,0,0.57-0.043,0.767-0.128c0.198-0.085,0.294-0.213,0.294-0.379c0-0.163-0.096-0.284-0.294-0.369
		c-0.197-0.084-0.451-0.124-0.767-0.124c-0.316,0-0.573,0.04-0.766,0.124c-0.195,0.085-0.293,0.206-0.293,0.369
		C35.084,34.703,35.182,34.831,35.377,34.916z"/>
	<path fill="#FFFFFF" d="M38.318,33.373v-0.317h1.441v-0.845h0.381v0.845h1.918v0.317H38.318z M39.101,35.114
		c-0.255-0.154-0.384-0.346-0.384-0.573c0-0.23,0.129-0.421,0.384-0.571c0.255-0.151,0.616-0.228,1.086-0.228
		c0.472,0,0.835,0.076,1.089,0.228c0.252,0.15,0.38,0.341,0.38,0.571c0,0.228-0.128,0.419-0.38,0.573
		c-0.253,0.154-0.617,0.23-1.089,0.23C39.716,35.345,39.355,35.269,39.101,35.114z M41.637,31.385
		c-0.003,0.254-0.023,0.501-0.053,0.741c-0.034,0.239-0.071,0.453-0.112,0.641h-0.361c0.033-0.144,0.064-0.313,0.09-0.514
		c0.027-0.199,0.042-0.381,0.046-0.55h-2.493v-0.318H41.637z M39.419,34.916c0.193,0.085,0.45,0.128,0.767,0.128
		c0.315,0,0.569-0.043,0.765-0.128c0.195-0.085,0.295-0.213,0.295-0.379c0-0.163-0.1-0.284-0.295-0.369
		c-0.196-0.084-0.45-0.124-0.765-0.124c-0.317,0-0.574,0.04-0.767,0.124c-0.195,0.085-0.293,0.206-0.293,0.369
		C39.126,34.703,39.224,34.831,39.419,34.916z"/>
	<path fill="#FFFFFF" d="M43.99,32.792c0.043,0.18,0.11,0.344,0.197,0.497c0.094,0.164,0.212,0.314,0.355,0.451
		c0.144,0.136,0.313,0.261,0.504,0.375c-0.049,0.035-0.1,0.08-0.149,0.129c-0.056,0.053-0.099,0.098-0.135,0.135
		c-0.103-0.065-0.201-0.141-0.298-0.224c-0.099-0.084-0.189-0.173-0.277-0.27c-0.099-0.11-0.188-0.228-0.267-0.352
		c-0.08-0.125-0.146-0.253-0.195-0.385c-0.036,0.122-0.09,0.248-0.161,0.372c-0.068,0.127-0.15,0.248-0.244,0.364
		c-0.093,0.119-0.193,0.232-0.305,0.337c-0.108,0.105-0.215,0.193-0.32,0.266c-0.038-0.039-0.09-0.082-0.152-0.127
		c-0.063-0.049-0.125-0.09-0.185-0.131c0.186-0.112,0.352-0.242,0.5-0.388c0.149-0.145,0.271-0.304,0.369-0.478
		c0.099-0.173,0.174-0.36,0.226-0.562c0.051-0.2,0.078-0.415,0.078-0.642v-0.324h-0.87v-0.319h2.15v0.319h-0.891v0.382
		C43.921,32.423,43.946,32.614,43.99,32.792z M45.469,35.265V32.88h-0.864v-0.336h0.864v-1.275h0.38v3.996H45.469z"/>
	<path fill="#FFFFFF" d="M47.986,32.313c0.055,0.126,0.127,0.242,0.221,0.348c0.096,0.11,0.209,0.206,0.344,0.288
		c0.134,0.08,0.27,0.145,0.409,0.191c-0.043,0.043-0.089,0.088-0.133,0.14c-0.045,0.052-0.083,0.095-0.113,0.136
		c-0.089-0.041-0.185-0.088-0.29-0.148c-0.102-0.06-0.203-0.131-0.298-0.211c-0.084-0.07-0.161-0.145-0.233-0.226
		c-0.072-0.08-0.134-0.167-0.184-0.26c-0.034,0.093-0.08,0.184-0.145,0.271c-0.063,0.09-0.132,0.172-0.212,0.25
		c-0.093,0.09-0.193,0.173-0.306,0.248c-0.113,0.074-0.227,0.141-0.34,0.197c-0.033-0.034-0.078-0.074-0.137-0.121
		c-0.059-0.049-0.112-0.092-0.165-0.13c0.168-0.073,0.325-0.158,0.473-0.259c0.146-0.102,0.271-0.219,0.371-0.357
		c0.082-0.107,0.146-0.229,0.193-0.36c0.045-0.135,0.067-0.278,0.067-0.434v-0.104h-0.803v-0.319h1.999v0.319h-0.801v0.117
		C47.905,32.044,47.934,32.185,47.986,32.313z M49.353,35.292v-1.105h-2.291v-0.323h2.662v1.429H49.353z M49.724,32.544v1.132
		h-0.371v-2.407h0.371v0.942h0.566v0.333H49.724z"/>
	<path fill="#FFFFFF" d="M52.5,33.212v0.404h1.186v0.939h-2.331v0.382h2.419v0.291h-2.83v-0.955h2.333v-0.36h-2.333v-0.297h1.171
		v-0.404h-1.67v-0.301h3.739v0.301H52.5z M50.935,32.575v-1.194h2.756v1.194H50.935z M53.322,31.676h-2.026v0.603h2.026V31.676z"/>
	<path fill="#FFFFFF" d="M57.378,32.792c0.044,0.18,0.109,0.344,0.196,0.497c0.095,0.164,0.216,0.314,0.357,0.451
		c0.143,0.136,0.312,0.261,0.505,0.375c-0.047,0.035-0.099,0.08-0.15,0.129c-0.052,0.053-0.096,0.098-0.132,0.135
		c-0.102-0.065-0.203-0.141-0.301-0.224c-0.1-0.084-0.193-0.173-0.279-0.27c-0.1-0.11-0.188-0.228-0.267-0.352
		c-0.079-0.125-0.146-0.253-0.196-0.385c-0.033,0.122-0.085,0.248-0.157,0.372c-0.071,0.127-0.152,0.248-0.246,0.364
		c-0.092,0.119-0.194,0.232-0.301,0.337c-0.107,0.105-0.215,0.193-0.32,0.266c-0.04-0.039-0.092-0.082-0.154-0.127
		c-0.06-0.049-0.122-0.09-0.185-0.131c0.188-0.112,0.354-0.241,0.498-0.385s0.266-0.303,0.368-0.476
		c0.097-0.174,0.173-0.362,0.226-0.563c0.053-0.203,0.079-0.418,0.079-0.645v-0.324h-0.867v-0.319h2.152v0.319h-0.894v0.382
		C57.311,32.423,57.331,32.614,57.378,32.792z M59.08,31.269v1.549h0.6v0.337h-0.6v2.114h-0.379v-4H59.08z"/>
	<path fill="#FFFFFF" d="M62.631,33.863v1.401H62.25v-1.401h-0.993v1.369h-0.38v-1.364h-1.003V33.54h3.739v0.323H62.631z
		 M60.681,32.882c-0.26-0.175-0.388-0.392-0.388-0.653c0-0.26,0.128-0.479,0.385-0.656c0.259-0.18,0.613-0.269,1.064-0.269
		c0.456,0,0.812,0.089,1.068,0.266c0.258,0.175,0.387,0.396,0.387,0.659c0,0.258-0.129,0.475-0.387,0.651
		c-0.257,0.177-0.612,0.264-1.068,0.264C61.293,33.144,60.94,33.057,60.681,32.882z M60.99,32.658
		c0.202,0.104,0.452,0.159,0.752,0.159s0.548-0.053,0.748-0.154c0.2-0.104,0.298-0.245,0.298-0.425c0-0.189-0.098-0.338-0.295-0.444
		c-0.2-0.108-0.448-0.161-0.751-0.161s-0.553,0.052-0.756,0.158c-0.199,0.105-0.3,0.253-0.3,0.438
		C60.687,32.408,60.788,32.552,60.99,32.658z"/>
	<path fill="#FFFFFF" d="M64.451,31.745c0.213-0.239,0.44-0.36,0.688-0.36c0.249,0,0.479,0.121,0.686,0.363
		c0.205,0.242,0.31,0.628,0.31,1.154c0,0.518-0.104,0.9-0.305,1.15c-0.204,0.247-0.436,0.373-0.69,0.373
		c-0.256,0-0.486-0.125-0.693-0.371c-0.208-0.248-0.31-0.632-0.31-1.152C64.136,32.372,64.242,31.986,64.451,31.745z M64.671,33.731
		c0.109,0.241,0.266,0.36,0.472,0.36c0.202,0,0.358-0.119,0.46-0.36c0.105-0.241,0.161-0.52,0.161-0.832
		c0-0.307-0.056-0.58-0.161-0.821c-0.102-0.24-0.258-0.361-0.46-0.361c-0.206,0-0.362,0.121-0.472,0.364
		c-0.112,0.242-0.167,0.515-0.167,0.818C64.504,33.212,64.559,33.49,64.671,33.731z M66.938,35.265v-3.996h0.377v3.996H66.938z"/>
	<path fill="#FFFFFF" d="M67.956,33.55V33.23h1.02v-0.593c-0.189-0.068-0.336-0.16-0.434-0.272c-0.1-0.112-0.147-0.234-0.147-0.365
		c0-0.212,0.123-0.393,0.374-0.539c0.249-0.146,0.601-0.221,1.051-0.221c0.464,0,0.82,0.075,1.069,0.225
		c0.253,0.15,0.379,0.333,0.379,0.544c0,0.128-0.049,0.248-0.147,0.358c-0.096,0.111-0.241,0.202-0.432,0.271v0.593h1.01v0.319
		H67.956z M68.741,34.059c0.253-0.14,0.613-0.208,1.085-0.208c0.473,0,0.833,0.07,1.086,0.213c0.251,0.143,0.377,0.32,0.377,0.537
		c0,0.21-0.125,0.387-0.375,0.529c-0.251,0.144-0.612,0.215-1.088,0.215c-0.472,0-0.832-0.071-1.085-0.215
		c-0.253-0.143-0.379-0.321-0.379-0.535C68.362,34.376,68.488,34.199,68.741,34.059z M69.065,34.932
		c0.188,0.082,0.442,0.122,0.761,0.122c0.312,0,0.563-0.04,0.753-0.122c0.192-0.08,0.289-0.191,0.289-0.331
		c0-0.15-0.097-0.265-0.289-0.347c-0.19-0.081-0.441-0.121-0.753-0.121c-0.318,0-0.572,0.04-0.761,0.121
		c-0.191,0.082-0.285,0.195-0.285,0.341C68.78,34.739,68.874,34.852,69.065,34.932z M69.077,32.335
		c0.188,0.088,0.436,0.131,0.742,0.131c0.308,0,0.557-0.041,0.751-0.127c0.191-0.086,0.289-0.196,0.289-0.334
		c0-0.141-0.098-0.256-0.289-0.344c-0.194-0.089-0.443-0.134-0.751-0.134c-0.305,0-0.551,0.045-0.738,0.129
		c-0.188,0.084-0.284,0.199-0.284,0.339C68.797,32.133,68.891,32.245,69.077,32.335z M70.319,32.718
		c-0.071,0.017-0.15,0.027-0.235,0.034c-0.086,0.007-0.173,0.011-0.265,0.011c-0.082,0-0.166-0.004-0.248-0.011
		c-0.083-0.007-0.157-0.017-0.222-0.029v0.508h0.97V32.718z"/>
	<path fill="#FFFFFF" d="M72.205,32.332v-0.323h2.331v0.323H72.205z M72.641,32.913c0.188-0.189,0.435-0.285,0.741-0.285
		c0.294,0,0.536,0.096,0.726,0.285c0.19,0.19,0.285,0.415,0.285,0.672c0,0.252-0.095,0.477-0.285,0.675
		c-0.189,0.196-0.432,0.296-0.726,0.296c-0.299,0-0.544-0.099-0.737-0.292c-0.189-0.194-0.286-0.421-0.286-0.679
		C72.358,33.328,72.453,33.104,72.641,32.913z M72.916,34.046c0.11,0.124,0.267,0.185,0.466,0.185c0.195,0,0.349-0.063,0.459-0.187
		c0.111-0.127,0.165-0.279,0.165-0.459c0-0.176-0.054-0.326-0.165-0.451c-0.11-0.125-0.264-0.186-0.459-0.186
		c-0.199,0-0.355,0.061-0.466,0.186c-0.111,0.125-0.167,0.275-0.167,0.451C72.749,33.767,72.805,33.921,72.916,34.046z
		 M72.769,31.672v-0.314h1.21v0.314H72.769z M75.143,35.265v-1.985h-0.67v-0.336h0.67v-1.675h0.378v3.996H75.143z"/>
	<path fill="#FFFFFF" d="M78.754,33.378c-0.146,0.029-0.363,0.057-0.654,0.086c-0.292,0.03-0.555,0.048-0.791,0.054
		c-0.157,0.004-0.362,0.006-0.616,0.009c-0.251,0.004-0.385,0.004-0.396,0.004v-1.233h1.481V31.73h-1.481v-0.313h1.851v1.185h-1.485
		v0.606l0.689-0.009c0.187-0.003,0.427-0.019,0.725-0.048c0.296-0.027,0.522-0.058,0.679-0.088V33.378z M78.923,35.292V34.26h-2.285
		v-0.325h2.673v1.357H78.923z M79.311,32.547v1.2h-0.377v-2.479h0.377v0.951h0.552v0.327H79.311z"/>
</g>
<g>
	<g>
		<path fill="#FFFFFF" d="M11.44,30.939h1.106v2.185h0.015c0.111-0.19,0.227-0.367,0.344-0.541l1.114-1.644h1.379l-1.635,2.104
			l1.714,2.835h-1.298l-1.215-2.132l-0.417,0.521v1.611H11.44V30.939z"/>
		<path fill="#FFFFFF" d="M17.536,35.96c-1.458,0-2.323-1.106-2.323-2.514c0-1.48,0.952-2.587,2.403-2.587
			c1.517,0,2.345,1.137,2.345,2.499c0,1.627-0.975,2.602-2.419,2.602H17.536z M17.586,35.072c0.755,0,1.186-0.709,1.186-1.677
			c0-0.887-0.417-1.649-1.186-1.649c-0.768,0-1.202,0.748-1.202,1.671c0,0.931,0.448,1.655,1.195,1.655H17.586z"/>
		<path fill="#FFFFFF" d="M24.635,35.651c-0.344,0.117-0.998,0.279-1.648,0.279c-0.901,0-1.554-0.229-2.008-0.66
			c-0.447-0.432-0.695-1.076-0.695-1.803c0.006-1.641,1.201-2.58,2.819-2.58c0.637,0,1.128,0.126,1.371,0.235l-0.235,0.901
			c-0.272-0.125-0.602-0.212-1.143-0.212c-0.93,0-1.642,0.527-1.642,1.598c0,1.025,0.646,1.619,1.562,1.619
			c0.25,0,0.456-0.029,0.542-0.067v-1.039h-0.761v-0.872h1.838V35.651z"/>
		<path fill="#FFFFFF" d="M25.331,30.939h1.114v4.002h1.963v0.938h-3.077V30.939z"/>
	</g>
</g>
</svg>
